<svg width="30" height="31" viewBox="0 0 30 31" fill="none" xmlns="http://www.w3.org/2000/svg">
<path d="M15.0005 3.31301C12.5901 3.31321 10.234 4.02813 8.23 5.36738C6.22599 6.70662 4.6641 8.61004 3.74185 10.8369C2.8196 13.0638 2.5784 15.5142 3.04875 17.8782C3.5191 20.2422 4.67988 22.4136 6.3843 24.1179C8.08872 25.8222 10.2602 26.9828 12.6243 27.4529C14.9883 27.9231 17.4386 27.6817 19.6655 26.7592C21.8923 25.8368 23.7956 24.2748 25.1346 22.2706C26.4737 20.2665 27.1885 17.9103 27.1885 15.5C27.1853 12.2685 25.9002 9.17031 23.6152 6.8853C21.3302 4.6003 18.2319 3.31619 15.0005 3.31301ZM19.6885 16.437H10.3135C10.0701 16.4291 9.8394 16.3268 9.67008 16.1519C9.50075 15.9769 9.40608 15.743 9.40608 15.4995C9.40608 15.256 9.50075 15.0221 9.67008 14.8472C9.8394 14.6722 10.0701 14.57 10.3135 14.562H19.6875C19.9362 14.562 20.1748 14.6608 20.3507 14.8367C20.5266 15.0127 20.6255 15.2512 20.6255 15.5C20.6255 15.7488 20.5266 15.9874 20.3507 16.1633C20.1748 16.3392 19.9362 16.438 19.6875 16.438L19.6885 16.437Z" fill="#FF7F00"/>
</svg>
