<svg width="30" height="31" viewBox="0 0 30 31" fill="none" xmlns="http://www.w3.org/2000/svg">
<path d="M15.0005 3.31301C12.5901 3.31321 10.234 4.02813 8.23 5.36738C6.22599 6.70662 4.6641 8.61004 3.74185 10.8369C2.8196 13.0638 2.5784 15.5142 3.04875 17.8782C3.5191 20.2422 4.67988 22.4136 6.3843 24.1179C8.08872 25.8222 10.2602 26.9828 12.6243 27.4529C14.9883 27.9231 17.4386 27.6817 19.6655 26.7592C21.8923 25.8368 23.7956 24.2748 25.1346 22.2706C26.4737 20.2665 27.1885 17.9103 27.1885 15.5C27.1845 12.2688 25.8991 9.17101 23.6143 6.88618C21.3295 4.60134 18.2317 3.31698 15.0005 3.31301ZM19.6885 16.437H15.9385V20.187C15.9385 20.4358 15.8396 20.6744 15.6637 20.8503C15.4878 21.0262 15.2492 21.125 15.0005 21.125C14.7517 21.125 14.5131 21.0262 14.3372 20.8503C14.1613 20.6744 14.0625 20.4358 14.0625 20.187V16.437H10.3125C10.0691 16.4291 9.8384 16.3268 9.66908 16.1519C9.49975 15.9769 9.40508 15.743 9.40508 15.4995C9.40508 15.256 9.49975 15.0221 9.66908 14.8472C9.8384 14.6722 10.0691 14.57 10.3125 14.562H14.0625V10.812C14.0625 10.5632 14.1613 10.3247 14.3372 10.1487C14.5131 9.97284 14.7517 9.87401 15.0005 9.87401C15.2492 9.87401 15.4878 9.97284 15.6637 10.1487C15.8396 10.3247 15.9385 10.5632 15.9385 10.812V14.562H19.6885C19.9372 14.562 20.1758 14.6608 20.3517 14.8367C20.5276 15.0127 20.6265 15.2512 20.6265 15.5C20.6265 15.7488 20.5276 15.9874 20.3517 16.1633C20.1758 16.3392 19.9372 16.437 19.6885 16.437Z" fill="#000562"/>
</svg>
